<?xml version="1.0" standalone="no"?>
<!DOCTYPE svg PUBLIC "-//W3C//DTD SVG 20010904//EN"
 "http://www.w3.org/TR/2001/REC-SVG-20010904/DTD/svg10.dtd">
<svg version="1.0" xmlns="http://www.w3.org/2000/svg"
 width="1115.000000pt" height="1115.000000pt" viewBox="0 0 1115.000000 1115.000000"
 preserveAspectRatio="xMidYMid meet">
<metadata>
Created by potrace 1.11, written by Peter Selinger 2001-2013
</metadata>
<g transform="translate(0.000000,1115.000000) scale(0.100000,-0.100000)"
fill="#000000" stroke="none">
<path d="M3016 10808 c-23 -175 -54 -496 -66 -683 -13 -206 -13 -679 0 -819 6
-60 9 -110 8 -112 -2 -1 -129 -6 -283 -10 l-281 -7 -32 -251 c-18 -138 -32
-256 -32 -262 0 -7 17 -15 37 -19 62 -11 120 -44 131 -73 6 -15 13 -88 17
-162 22 -502 125 -931 278 -1168 76 -118 147 -179 294 -255 l128 -66 34 -103
c19 -57 49 -139 67 -182 19 -44 33 -81 31 -82 -1 -1 -128 -27 -282 -59 -154
-31 -288 -59 -297 -61 -21 -6 -25 -54 -5 -54 7 0 147 27 312 60 164 33 299 59
300 57 14 -16 66 -119 63 -123 -3 -2 -95 -45 -204 -94 -187 -84 -229 -111
-192 -125 8 -3 106 35 217 85 112 50 205 89 207 87 2 -1 -26 -38 -61 -81 -369
-441 -633 -1093 -759 -1876 -114 -703 -125 -1581 -26 -2135 93 -524 294 -834
575 -886 68 -13 164 -6 226 16 35 13 45 13 54 3 7 -7 29 -62 49 -123 69 -203
155 -361 255 -468 87 -93 291 -206 445 -246 97 -26 254 -28 341 -6 189 48 381
219 451 400 16 44 18 45 60 45 l44 0 -2 -124 -2 -124 41 -83 c119 -239 381
-413 653 -435 201 -16 418 91 569 281 100 125 176 273 271 527 31 83 35 88 67
94 21 4 57 -1 96 -12 47 -14 93 -19 192 -18 113 0 141 4 210 27 263 87 465
346 578 742 126 439 161 1117 88 1711 l-17 141 59 -24 c122 -50 401 -106 677
-137 551 -62 1042 -31 1423 90 151 48 372 158 477 237 528 400 675 1099 435
2074 -95 384 -160 533 -299 680 -133 141 -297 223 -447 223 -91 0 -139 -14
-188 -57 -80 -68 -97 -197 -47 -348 46 -137 130 -274 314 -512 66 -86 145
-244 173 -348 30 -112 37 -319 15 -436 -50 -264 -176 -490 -395 -709 -289
-289 -626 -442 -971 -442 -225 0 -408 60 -570 187 -246 190 -490 294 -745 313
l-88 7 -62 185 c-108 323 -251 662 -396 938 l-70 133 23 41 c13 23 30 46 40
51 12 8 70 -13 258 -98 230 -103 243 -108 256 -90 8 10 13 20 11 21 -2 2 -109
50 -436 196 l-43 20 52 53 52 52 311 -63 c172 -35 317 -64 323 -64 15 0 24 48
10 53 -6 2 -145 30 -308 63 l-297 58 20 26 c11 14 50 66 86 117 l66 92 71 12
c208 34 363 105 473 216 180 181 378 557 524 992 l48 144 106 45 c80 34 106
49 110 66 10 47 67 458 63 461 -1 2 -159 48 -350 102 l-347 99 80 80 c270 266
453 600 515 939 18 100 21 208 14 532 -2 127 -4 134 -28 158 -38 38 -92 48
-217 42 -314 -17 -948 -244 -1218 -438 -96 -68 -192 -164 -231 -232 -33 -56
-59 -160 -52 -203 l7 -33 -87 54 c-181 114 -449 237 -676 310 -561 181 -1138
203 -1690 64 -64 -16 -119 -29 -121 -29 -2 0 -10 35 -17 78 -17 107 -71 271
-125 376 -195 382 -555 643 -1050 759 -98 23 -298 57 -337 57 -12 0 -19 -28
-32 -122z m28 -1995 c19 -61 28 -211 36 -618 9 -457 16 -593 46 -817 9 -65 14
-123 11 -130 -2 -8 -37 20 -84 67 -66 66 -88 97 -126 175 -82 170 -117 342
-117 584 0 294 65 556 176 707 38 53 50 59 58 32z m5239 -751 c44 -81 60 -170
60 -327 0 -382 -159 -797 -387 -1012 -62 -58 -173 -130 -184 -119 -2 2 12 35
31 72 168 335 325 916 368 1366 l12 127 37 -29 c20 -16 48 -51 63 -78z"/>
</g>
</svg>
